# xmcd
#
# Track frame offsets:
# 150
# 9868
# 25700
# 40387
# 51378
# 64789
# 75791
# 89445
# 102583
# 114671
# 127530
# 141553
# 157498
# 167664
# 191555
# 205636
# 214221
# 232921
# 243879
# 258444
# 271356
# 285518
#
# Disc length: 3962 seconds
#
# Revision: 0
# Processed by: cddbd v1.5PL3 Copyright (c) Steve Scherf et al.
# Submitted via: Audion 3.0.2 (http://www.panic.com/audion/)
#
DISCID=2f0f7816
DTITLE=Hollywood Musical - 1927-1934
DYEAR=1900
DGENRE=
TTITLE0=Toot, Toot, Tootsie goodbye
TTITLE1=My man
TTITLE2=Ma Louise
TTITLE3=Broadway melody
TTITLE4=You're always in my arms
TTITLE5=You brought a new kind of love to me
TTITLE6=Beyond the blue horizon
TTITLE7=A bench in the park
TTITLE8=Sweepin' the clouds away
TTITLE9=Dinha
TTITLE10=Mimi
TTITLE11=Forty second street
TTITLE12=I've got to sing a torch song
TTITLE13=Shanghai lil
TTITLE14=Temptation
TTITLE15=Music makes me
TTITLE16=I only have eyes for you
TTITLE17=The continental
TTITLE18=I'll string along with you
TTITLE19=Waltz
TTITLE20=Godd night, lovely little lady
TTITLE21=On the good ship lollipop
EXTD=
EXTT0=
EXTT1=
EXTT2=
EXTT3=
EXTT4=
EXTT5=
EXTT6=
EXTT7=
EXTT8=
EXTT9=
EXTT10=
EXTT11=
EXTT12=
EXTT13=
EXTT14=
EXTT15=
EXTT16=
EXTT17=
EXTT18=
EXTT19=
EXTT20=
EXTT21=
PLAYORDER=
